<svg width="40" height="40" viewBox="0 0 40 40" fill="none" xmlns="http://www.w3.org/2000/svg">
<rect width="40" height="40" rx="20" fill="#D9D9D9" fill-opacity="0.13"/>
<g clip-path="url(#clip0_3653_58290)">
<path d="M14.2929 24.2929C13.9024 24.6834 13.9024 25.3166 14.2929 25.7071C14.6834 26.0976 15.3166 26.0976 15.7071 25.7071L19.9999 21.4143L24.2929 25.7073C24.6834 26.0978 25.3166 26.0978 25.7071 25.7073C26.0976 25.3167 26.0976 24.6836 25.7071 24.293L21.4141 20.0001L25.7071 15.7071C26.0976 15.3166 26.0976 14.6834 25.7071 14.2929C25.3166 13.9024 24.6834 13.9024 24.2929 14.2929L19.9999 18.5859L15.7071 14.293C15.3166 13.9025 14.6834 13.9025 14.2929 14.293C13.9024 14.6836 13.9024 15.3167 14.2929 15.7073L18.5857 20.0001L14.2929 24.2929Z" fill="white"/>
</g>
<defs>
<clipPath id="clip0_3653_58290">
<rect width="24" height="24" fill="white" transform="translate(8 8)"/>
</clipPath>
</defs>
</svg>
