<svg width="40" height="40" viewBox="0 0 40 40" fill="none" xmlns="http://www.w3.org/2000/svg">
<rect width="40" height="40" rx="20" fill="#D9D9D9" fill-opacity="0.13"/>
<g clip-path="url(#clip0_3653_58311)">
<path d="M25.625 20.0001H24.2008C23.9375 20.0001 23.7532 19.7606 23.75 19.502C23.7488 19.4022 23.7746 19.2995 23.8332 19.2067C25.0764 17.2375 25.6949 16.2529 26.5609 16.2529C27.4269 16.2529 28.0487 17.2375 29.2919 19.2067C29.3505 19.2995 29.3763 19.4022 29.375 19.502C29.3719 19.7606 29.1876 20.0001 28.9243 20.0001H27.5C27.5 20.6351 27.4698 21.27 27.4208 21.8819C27.2511 24.0023 27.1663 25.0626 26.1144 26.1144C25.0626 27.1663 24.0023 27.2512 21.8819 27.4208C21.27 27.4698 20.635 27.5 20 27.5C19.284 27.5 18.568 27.4615 17.885 27.4012C17.2235 27.3427 16.6698 27.2937 16.1881 27.2183C15.454 27.1035 15.289 26.2554 15.8143 25.73C16.0711 25.4733 16.4385 25.3623 16.7988 25.4071C17.1283 25.4481 17.536 25.488 18.0501 25.5334C18.6896 25.59 19.3495 25.625 20 25.625C20.5767 25.625 21.161 25.5975 21.7324 25.5518C23.9834 25.3717 24.3022 25.275 24.7886 24.7886C25.275 24.3022 25.3717 23.9834 25.5518 21.7324C25.5975 21.161 25.625 20.5767 25.625 20.0001Z" fill="white"/>
<path d="M12.5001 20.0004H11.0758C10.8077 20.0004 10.6215 20.2488 10.6251 20.5128C10.6263 20.608 10.6524 20.7053 10.7082 20.7937C11.9513 22.7629 12.5774 23.7475 13.4434 23.7475C14.3093 23.7475 14.924 22.7629 16.1671 20.7937C16.2275 20.6981 16.253 20.592 16.2501 20.4893C16.2427 20.2342 16.0596 20.0004 15.7995 20.0004H14.3751C14.3751 19.4237 14.4026 18.839 14.4483 18.2676C14.6284 16.0166 14.7251 15.6978 15.2115 15.2114C15.6978 14.725 16.0167 14.6283 18.2677 14.4482C18.8391 14.4025 19.4234 14.375 20 14.375C20.6506 14.375 21.3106 14.41 21.9501 14.4666C22.4698 14.5125 22.8808 14.5527 23.2121 14.5942C23.5733 14.6394 23.942 14.5286 24.1993 14.2712C24.7236 13.7469 24.5604 12.9 23.8281 12.7842C23.3426 12.7074 22.7841 12.658 22.1153 12.5989C21.4322 12.5385 20.7161 12.5 20 12.5C19.3651 12.5 18.7301 12.5302 18.1182 12.5792C15.9977 12.7488 14.9375 12.8337 13.8856 13.8855C12.8338 14.9374 12.7489 15.9976 12.5793 18.1181C12.5303 18.73 12.5001 19.3654 12.5001 20.0004Z" fill="white"/>
</g>
<defs>
<clipPath id="clip0_3653_58311">
<rect width="24" height="24" fill="white" transform="translate(8 8)"/>
</clipPath>
</defs>
</svg>
