<svg width="40" height="40" viewBox="0 0 40 40" fill="none" xmlns="http://www.w3.org/2000/svg">
<rect width="40" height="40" rx="20" fill="#D9D9D9" fill-opacity="0.13"/>
<g clip-path="url(#clip0_3653_58293)">
<path fill-rule="evenodd" clip-rule="evenodd" d="M27.2695 7.31808C27.7215 7.71203 27.9471 8.41988 27.6167 9.08063L23.4904 17.3333H26.4083C27.5576 17.3333 28.324 18.6468 27.5996 19.6535C26.9713 20.5266 24.3756 24.091 22.2945 26.257C19.8792 28.7709 15.8535 31.7997 14.559 32.755C13.9444 33.2085 13.1889 33.0819 12.7298 32.6818C12.2778 32.2878 12.0522 31.58 12.3826 30.9192L16.5089 22.6666H13.591C12.4417 22.6666 11.6753 21.353 12.3997 20.3464C13.028 19.4733 15.6237 15.9089 17.7048 13.7428C20.1201 11.229 24.1458 8.20012 25.4403 7.24484C26.0549 6.79133 26.8104 6.91799 27.2695 7.31808ZM22.846 12.6592C21.6924 13.6203 20.5291 14.6522 19.6278 15.5904C18.4341 16.8328 17.0258 18.6119 15.9729 19.9999H18.4506C19.5409 19.9999 20.25 21.1473 19.7624 22.1225L17.1533 27.3407C18.3069 26.3795 19.4702 25.3476 20.3715 24.4095C21.5652 23.1671 22.9735 21.3879 24.0264 19.9999H21.5487C20.4584 19.9999 19.7493 18.8525 20.2369 17.8774L22.846 12.6592Z" fill="white"/>
</g>
<defs>
<clipPath id="clip0_3653_58293">
<rect width="32" height="32" fill="white" transform="translate(4 4)"/>
</clipPath>
</defs>
</svg>
