<svg width="40" height="40" viewBox="0 0 40 40" fill="none" xmlns="http://www.w3.org/2000/svg">
<rect width="40" height="40" rx="20" fill="#D9D9D9" fill-opacity="0.13"/>
<g clip-path="url(#clip0_3653_58305)">
<path d="M19.75 16.9985C19.75 16.032 18.9665 15.2485 18 15.2485C17.0335 15.2485 16.25 16.032 16.25 16.9985C16.25 17.965 17.0335 18.7485 18 18.7485C18.9665 18.7485 19.75 17.965 19.75 16.9985Z" fill="white"/>
<path fill-rule="evenodd" clip-rule="evenodd" d="M11.0811 17.9228C11.2757 15.3068 11.3731 13.9988 12.686 12.686C13.9988 11.3731 15.3068 11.2757 17.9228 11.0811C18.601 11.0306 19.3005 11 20 11C20.6995 11 21.399 11.0306 22.0772 11.0811C24.6932 11.2757 26.0012 11.3731 27.314 12.686C28.6269 13.9988 28.7243 15.3068 28.9189 17.9228C28.9694 18.601 29 19.3005 29 20C29 20.6995 28.9694 21.399 28.9189 22.0772C28.7243 24.6932 28.6269 26.0012 27.314 27.314C26.0012 28.6269 24.6932 28.7243 22.0772 28.9189C21.399 28.9694 20.6995 29 20 29C19.3005 29 18.601 28.9694 17.9228 28.9189C15.3068 28.7243 13.9988 28.6269 12.686 27.314C11.3731 26.0012 11.2757 24.6932 11.0811 22.0772C11.0306 21.399 11 20.6995 11 20C11 19.3005 11.0306 18.601 11.0811 17.9228ZM18.0713 13.0755C18.7084 13.0281 19.3578 13 20 13C20.6422 13 21.2916 13.0281 21.9287 13.0755C24.6791 13.2802 25.1936 13.394 25.8998 14.1002C26.606 14.8064 26.7198 15.3209 26.9245 18.0713C26.9719 18.7084 27 19.3578 27 20C27 20.6422 26.9719 21.2916 26.9245 21.9287C26.9033 22.2129 26.8831 22.4732 26.8632 22.7123C26.3721 20.8803 26.0992 20.2342 25.5306 19.0046C25.0592 17.9853 24.3753 16.9985 23.7966 16.9985C23.218 16.9985 22.5216 18.0586 22.0627 19.0046C21.6038 19.9507 20.4182 22.2813 20.4182 22.2813C20.1755 22.765 19.768 22.9991 19.3555 22.9985C18.9177 22.998 18.4743 22.7333 18.2159 22.2203C17.8745 21.5426 17.4744 20.9985 17.0037 20.9985C16.4257 20.9985 16.0408 21.6681 15.2724 23.0049L15.2697 23.0097L13.9378 25.7283C13.3747 25.094 13.2634 24.4532 13.0755 21.9287C13.0281 21.2916 13 20.6422 13 20C13 19.3578 13.0281 18.7084 13.0755 18.0713C13.2802 15.3209 13.394 14.8064 14.1002 14.1002C14.8064 13.394 15.3209 13.2802 18.0713 13.0755Z" fill="white"/>
</g>
<defs>
<clipPath id="clip0_3653_58305">
<rect width="24" height="24" fill="white" transform="translate(8 8)"/>
</clipPath>
</defs>
</svg>
