<svg width="12" height="12" viewBox="0 0 12 12" fill="none" xmlns="http://www.w3.org/2000/svg">
<path d="M0.292893 10.2929C-0.0976311 10.6834 -0.0976311 11.3166 0.292893 11.7071C0.683418 12.0976 1.31658 12.0976 1.70711 11.7071L5.99993 7.41429L10.2929 11.7073C10.6834 12.0978 11.3166 12.0978 11.7071 11.7073C12.0976 11.3167 12.0976 10.6836 11.7071 10.293L7.41414 6.00007L11.7071 1.70711C12.0976 1.31658 12.0976 0.683417 11.7071 0.292893C11.3166 -0.0976313 10.6834 -0.0976309 10.2929 0.292894L5.99992 4.58586L1.70711 0.293045C1.31658 -0.0974801 0.683419 -0.0974798 0.292895 0.293044C-0.0976297 0.683569 -0.0976293 1.31673 0.292895 1.70726L4.58571 6.00007L0.292893 10.2929Z" fill="#03012C"/>
</svg>
