<svg width="104" height="80" viewBox="0 0 104 80" fill="none" xmlns="http://www.w3.org/2000/svg">
<path d="M75.7327 50.6267C71.1527 65.9169 56.9533 77.0912 40.1932 77.0912C19.7412 77.0912 3.10219 60.452 3.10219 40C3.10219 19.548 19.7412 2.90883 40.1932 2.90883C52.5711 2.90883 63.552 9.00428 70.2932 18.3503C71.8181 18.6085 73.29 19.0681 74.679 19.716C72.9686 16.8101 70.8938 14.1318 68.4773 11.716C64.8042 8.0429 60.5268 5.15881 55.7636 3.14445C50.8312 1.05809 45.5925 0 40.1932 0C34.7939 0 29.5553 1.05809 24.6231 3.14445C19.8597 5.15881 15.5821 8.0429 11.9091 11.716C8.23604 15.3891 5.35209 19.6666 3.33736 24.4298C1.25115 29.3624 0.193359 34.6005 0.193359 40C0.193359 45.3995 1.25115 50.6376 3.33736 55.5702C5.35209 60.3334 8.23604 64.6109 11.9091 68.284C15.5821 71.9571 19.8597 74.8412 24.6231 76.8556C29.5553 78.9419 34.7939 80 40.1932 80C45.5925 80 50.8312 78.9419 55.7636 76.8556C60.5268 74.8412 64.8042 71.9571 68.4773 68.284C72.1505 64.6109 75.0346 60.3334 77.0489 55.5702C77.7412 53.934 78.3194 52.2643 78.784 50.5663L77.6271 49.4093C77.0184 49.8595 76.3857 50.2652 75.7327 50.6267Z" fill="url(#paint0_linear_3653_56485)"/>
<path d="M40.1927 13.8164C40.996 13.8164 41.6471 13.1656 41.6471 12.362V6.64833C41.6471 5.84477 40.996 5.19392 40.1927 5.19392C39.3894 5.19392 38.7383 5.84477 38.7383 6.64833V12.362C38.7383 13.1656 39.3894 13.8164 40.1927 13.8164Z" fill="url(#paint1_linear_3653_56485)"/>
<path d="M25.1145 16.7923C25.5161 17.4875 26.4056 17.726 27.1012 17.3246C27.7969 16.9232 28.0353 16.0331 27.6336 15.3379L24.7767 10.3892C24.3751 9.69403 23.4856 9.45551 22.79 9.85692C22.0943 10.2591 21.856 11.1484 22.2576 11.8437L25.1145 16.7923Z" fill="url(#paint2_linear_3653_56485)"/>
<path d="M16.9856 24.9228L12.0373 22.0656C11.3417 21.6641 10.4522 21.9019 10.0506 22.5979C9.64895 23.2938 9.88725 24.1832 10.5829 24.5846L15.5312 27.4418C16.2268 27.8432 17.1163 27.6047 17.518 26.9095C17.9196 26.2135 17.6812 25.3242 16.9856 24.9228Z" fill="url(#paint3_linear_3653_56485)"/>
<path d="M14.0093 39.9987C14.0093 39.1951 13.3581 38.5443 12.5549 38.5443H6.84113C6.03786 38.5443 5.38672 39.1951 5.38672 39.9987C5.38672 40.8023 6.03786 41.4531 6.84113 41.4531H12.5549C13.3581 41.4531 14.0093 40.8023 14.0093 39.9987Z" fill="url(#paint4_linear_3653_56485)"/>
<path d="M15.5312 52.5576L10.5829 55.4148C9.88725 55.8162 9.64895 56.7056 10.0506 57.4015C10.4522 58.0974 11.3417 58.3352 12.0373 57.9338L16.9856 55.0766C17.6812 54.6752 17.9196 53.7858 17.518 53.0899C17.1163 52.3947 16.2268 52.1562 15.5312 52.5576Z" fill="url(#paint5_linear_3653_56485)"/>
<path d="M27.1012 62.6733C26.4056 62.2719 25.5161 62.5104 25.1145 63.2056L22.2576 68.1543C21.856 68.8495 22.0943 69.7389 22.79 70.141C23.4856 70.5424 24.3751 70.3039 24.7767 69.6087L27.6336 64.6601C28.0353 63.9648 27.7969 63.0748 27.1012 62.6733Z" fill="url(#paint6_linear_3653_56485)"/>
<path d="M40.1927 66.1822C39.3894 66.1822 38.7383 66.833 38.7383 67.6366V73.3503C38.7383 74.1538 39.3894 74.8047 40.1927 74.8047C40.996 74.8047 41.6471 74.1538 41.6471 73.3503V67.6366C41.6471 66.833 40.996 66.1822 40.1927 66.1822Z" fill="url(#paint7_linear_3653_56485)"/>
<path d="M55.2706 63.2056C54.8692 62.5104 53.9798 62.2719 53.2839 62.6733C52.5887 63.0748 52.3501 63.9648 52.7516 64.6601L55.6088 69.6087C56.0102 70.3039 56.8996 70.5424 57.5955 70.141C58.2907 69.7389 58.5292 68.8495 58.1278 68.1543L55.2706 63.2056Z" fill="url(#paint8_linear_3653_56485)"/>
<path d="M62.8689 53.0899C62.4675 53.7858 62.7053 54.6752 63.4012 55.0766L68.3491 57.9338C69.0451 58.3352 69.9344 58.0974 70.3359 57.4015C70.738 56.7056 70.4995 55.8162 69.8035 55.4148L64.9371 52.6049C64.5502 52.551 64.1662 52.4849 63.7859 52.4049C63.4129 52.4958 63.0762 52.7314 62.8689 53.0899Z" fill="url(#paint9_linear_3653_56485)"/>
<path d="M53.2839 17.3246C53.9798 17.726 54.8692 17.4875 55.2706 16.7923L58.1278 11.8437C58.5292 11.1484 58.2907 10.2591 57.5955 9.85692C56.8996 9.45551 56.0102 9.69403 55.6088 10.3892L52.7516 15.3379C52.3501 16.0331 52.5887 16.9232 53.2839 17.3246Z" fill="url(#paint10_linear_3653_56485)"/>
<path d="M44.7366 37.7135C43.8995 36.0526 42.1795 34.9123 40.1922 34.9123C39.3165 34.9123 38.4926 35.1334 37.7731 35.5232L18.7407 16.4907C18.1726 15.9228 17.2518 15.9228 16.6838 16.4907C16.1158 17.0587 16.1158 17.9793 16.6838 18.5473L35.7163 37.5797C35.3266 38.2996 35.1052 39.1236 35.1052 39.9991C35.1052 42.8083 37.3827 45.0859 40.1922 45.0859C42.8059 45.0859 44.9581 43.1145 45.2455 40.578L50.5325 39.6377C50.3006 38.7018 50.1463 37.7411 50.0729 36.7652L44.7366 37.7135Z" fill="url(#paint11_linear_3653_56485)"/>
<path d="M77.0642 44.0464C76.8933 44.2391 76.7159 44.4289 76.5319 44.6136C74.0856 47.0599 70.8277 48.4067 67.3589 48.4067C63.8901 48.4067 60.633 47.0599 58.1867 44.6136C56.5693 42.9963 55.4334 41.0248 54.8488 38.873C54.5957 37.9436 54.4466 36.9801 54.4052 35.9969C54.3979 35.8122 54.3928 35.6268 54.3928 35.4406C54.3928 31.9718 55.7403 28.7147 58.1867 26.2683C60.633 23.822 63.8901 22.4745 67.3589 22.4745C67.4513 22.4745 67.5436 22.476 67.636 22.4781C68.5944 22.4978 69.5354 22.6214 70.4466 22.8418C71.5913 23.1195 72.6879 23.5508 73.7118 24.1267C74.7328 24.7005 75.6811 25.4182 76.5319 26.2683C77.4082 27.1446 78.1325 28.1169 78.7055 29.151C80.1607 31.7799 80.6348 34.8094 80.1279 37.6993C79.7251 39.9944 78.7041 42.2 77.0642 44.0464ZM103.114 66.1418C103.063 64.771 102.463 63.5231 101.423 62.628L84.7566 48.2693L83.7065 49.3201L80.1723 45.7858L80.4072 45.4819C82.6412 42.592 83.8214 39.1195 83.8214 35.4406C83.8214 31.0432 82.1088 26.909 79 23.8002C77.9289 22.729 76.737 21.8244 75.4542 21.0979C74.0659 20.3111 72.5715 19.7344 71.0102 19.3824C69.8256 19.1155 68.6032 18.9781 67.3589 18.9781C62.9615 18.9781 58.8273 20.6907 55.7185 23.8002C52.609 26.909 50.8965 31.0432 50.8965 35.4406C50.8965 35.834 50.911 36.2253 50.9379 36.6136C51.0063 37.591 51.1597 38.5516 51.3946 39.4868C52.1116 42.3367 53.5863 44.9496 55.7185 47.0817C58.8273 50.1905 62.9615 51.9031 67.3589 51.9031C70.491 51.9031 73.4733 51.0472 76.0738 49.4139C76.5275 49.1288 76.9704 48.8212 77.4002 48.4889L77.7042 48.254L81.2384 51.7882L80.1876 52.8383L94.5463 69.5051C95.4415 70.5443 96.6893 71.145 98.0601 71.1959C99.4302 71.2454 100.72 70.7407 101.689 69.7706C102.659 68.8012 103.165 67.5119 103.114 66.1418Z" fill="url(#paint12_linear_3653_56485)"/>
<defs>
<linearGradient id="paint0_linear_3653_56485" x1="0.193359" y1="0" x2="88.4878" y2="67.2619" gradientUnits="userSpaceOnUse">
<stop stop-color="#000312"/>
<stop offset="1" stop-color="#001741"/>
</linearGradient>
<linearGradient id="paint1_linear_3653_56485" x1="38.7383" y1="5.19392" x2="43.572" y2="6.45841" gradientUnits="userSpaceOnUse">
<stop stop-color="#000312"/>
<stop offset="1" stop-color="#001741"/>
</linearGradient>
<linearGradient id="paint2_linear_3653_56485" x1="22.0625" y1="9.662" x2="29.7958" y2="14.0627" gradientUnits="userSpaceOnUse">
<stop stop-color="#000312"/>
<stop offset="1" stop-color="#001741"/>
</linearGradient>
<linearGradient id="paint3_linear_3653_56485" x1="9.85547" y1="21.8705" x2="16.4466" y2="28.8353" gradientUnits="userSpaceOnUse">
<stop stop-color="#000312"/>
<stop offset="1" stop-color="#001741"/>
</linearGradient>
<linearGradient id="paint4_linear_3653_56485" x1="5.38672" y1="38.5443" x2="7.82298" y2="44.1444" gradientUnits="userSpaceOnUse">
<stop stop-color="#000312"/>
<stop offset="1" stop-color="#001741"/>
</linearGradient>
<linearGradient id="paint5_linear_3653_56485" x1="9.85547" y1="52.3627" x2="16.4466" y2="59.3275" gradientUnits="userSpaceOnUse">
<stop stop-color="#000312"/>
<stop offset="1" stop-color="#001741"/>
</linearGradient>
<linearGradient id="paint6_linear_3653_56485" x1="22.0625" y1="62.4784" x2="29.7958" y2="66.8792" gradientUnits="userSpaceOnUse">
<stop stop-color="#000312"/>
<stop offset="1" stop-color="#001741"/>
</linearGradient>
<linearGradient id="paint7_linear_3653_56485" x1="38.7383" y1="66.1822" x2="43.572" y2="67.4467" gradientUnits="userSpaceOnUse">
<stop stop-color="#000312"/>
<stop offset="1" stop-color="#001741"/>
</linearGradient>
<linearGradient id="paint8_linear_3653_56485" x1="52.5566" y1="62.4784" x2="60.2899" y2="66.879" gradientUnits="userSpaceOnUse">
<stop stop-color="#000312"/>
<stop offset="1" stop-color="#001741"/>
</linearGradient>
<linearGradient id="paint9_linear_3653_56485" x1="62.6738" y1="52.4049" x2="69.2139" y2="59.3665" gradientUnits="userSpaceOnUse">
<stop stop-color="#000312"/>
<stop offset="1" stop-color="#001741"/>
</linearGradient>
<linearGradient id="paint10_linear_3653_56485" x1="52.5566" y1="9.662" x2="60.2899" y2="14.0626" gradientUnits="userSpaceOnUse">
<stop stop-color="#000312"/>
<stop offset="1" stop-color="#001741"/>
</linearGradient>
<linearGradient id="paint11_linear_3653_56485" x1="16.2578" y1="16.0648" x2="49.3528" y2="46.374" gradientUnits="userSpaceOnUse">
<stop stop-color="#000312"/>
<stop offset="1" stop-color="#001741"/>
</linearGradient>
<linearGradient id="paint12_linear_3653_56485" x1="50.8965" y1="18.9781" x2="108.796" y2="63.8765" gradientUnits="userSpaceOnUse">
<stop stop-color="#000312"/>
<stop offset="1" stop-color="#001741"/>
</linearGradient>
</defs>
</svg>
