<svg width="25" height="24" viewBox="0 0 25 24" fill="none" xmlns="http://www.w3.org/2000/svg">
<path fill-rule="evenodd" clip-rule="evenodd" d="M20.469 10.5845C20.5874 11.2777 20.6562 11.9323 20.6562 12.5C20.6562 12.8154 20.6433 13.1361 20.6198 13.4575C20.5456 14.4712 20.5015 14.932 20.3857 15.3078C20.3019 15.58 20.1574 15.8748 19.6901 16.3485C19.2432 16.8017 18.9405 16.9574 18.6218 17.0557C18.1928 17.1881 17.6582 17.244 16.5628 17.3392C15.464 17.4346 14.1619 17.5 12.6562 17.5C11.293 17.5 10.0965 17.4464 9.06685 17.3654C7.92085 17.2753 7.33897 17.2207 6.87446 17.086C6.52289 16.9841 6.21343 16.8269 5.77702 16.3944C5.34409 15.9654 5.18263 15.6556 5.07564 15.296C4.93497 14.8232 4.87408 14.2286 4.77224 13.0687C4.70125 12.2603 4.65625 11.3944 4.65625 10.5C4.65625 9.47571 4.76863 8.47198 4.93323 7.55505C5.15998 6.29185 5.21624 6.13616 5.45662 5.81102C5.58364 5.63921 5.98714 5.30169 6.17869 5.20702C6.51419 5.04121 6.79538 5 8.53186 5H9.80289C10.3803 5 10.9275 5.25767 11.2954 5.70272C12.2362 6.84098 13.6358 7.5 15.1125 7.5H16.2318C18.5279 7.5 18.9168 7.56292 19.2902 7.78888C19.4207 7.86782 19.6674 8.07596 19.7672 8.19126C20.0674 8.53822 20.1607 8.78254 20.4646 10.5586C20.4661 10.5672 20.4676 10.5758 20.469 10.5845ZM5.29256 3.41404C4.81569 3.64973 4.16464 4.19432 3.84841 4.62205C3.29286 5.37348 3.18347 5.98288 2.96469 7.20169C2.78388 8.20894 2.65625 9.3332 2.65625 10.5C2.65625 11.4606 2.70454 12.3854 2.7799 13.2437C2.97201 15.4316 3.06807 16.5256 4.36924 17.815C5.67042 19.1044 6.75029 19.1894 8.91002 19.3592C9.99173 19.4443 11.2405 19.5 12.6562 19.5C14.2199 19.5 15.5797 19.4321 16.7359 19.3317C18.7927 19.153 19.8211 19.0636 21.114 17.7531C22.4068 16.4425 22.476 15.4961 22.6144 13.6034C22.6411 13.2393 22.6562 12.8697 22.6562 12.5C22.6562 11.7836 22.5707 11.0101 22.4405 10.2478C22.1534 8.56686 22.0098 7.72642 21.2795 6.88253C21.0428 6.60897 20.6351 6.26504 20.3256 6.07775C19.3708 5.5 18.3245 5.5 16.2318 5.5H15.1125C14.2322 5.5 13.3978 5.10713 12.837 4.42857C12.0892 3.52383 10.9767 3 9.80289 3H8.53186C6.93084 3 6.13033 3 5.29256 3.41404Z" fill="#040731"/>
</svg>
