<svg width="25" height="24" viewBox="0 0 25 24" fill="none" xmlns="http://www.w3.org/2000/svg">
<path fill-rule="evenodd" clip-rule="evenodd" d="M16.6555 13C16.6555 15.2091 14.8647 17 12.6555 17C10.4464 17 8.65552 15.2091 8.65552 13C8.65552 10.7909 10.4464 9 12.6555 9C14.8647 9 16.6555 10.7909 16.6555 13ZM14.6555 13C14.6555 14.1046 13.7601 15 12.6555 15C11.5509 15 10.6555 14.1046 10.6555 13C10.6555 11.8954 11.5509 11 12.6555 11C13.7601 11 14.6555 11.8954 14.6555 13Z" fill="white"/>
<path fill-rule="evenodd" clip-rule="evenodd" d="M2.71572 15.1533C2.85726 17.0355 2.92802 17.9765 4.22977 19.2858C5.53152 20.5951 6.55453 20.678 8.60055 20.8437C9.75317 20.9371 11.1053 21.0002 12.6547 21.0002C14.2035 21.0002 15.5552 20.9371 16.7076 20.8438C18.7546 20.6781 19.778 20.5952 21.0799 19.2857C22.3817 17.9761 22.4524 17.0346 22.5938 15.1514C22.6323 14.6378 22.655 14.0967 22.655 13.5343C22.655 12.9721 22.6323 12.431 22.5938 11.9174C22.4524 10.0341 22.3818 9.0925 21.0799 7.78296C20.1129 6.81023 19.2994 6.51432 18.106 6.35853C18.0267 5.7611 17.8153 5.25207 17.252 4.56226C17.1878 4.48363 16.9972 4.27705 16.924 4.20674C15.8956 3.2194 15.1736 3.16128 13.7294 3.04504C13.3768 3.01665 13.0162 3 12.6557 3C12.2723 3 11.8873 3.01884 11.5108 3.0506C10.2087 3.16043 9.55764 3.21534 8.5861 4.03085C8.41288 4.17626 8.0191 4.60465 7.88877 4.78948C7.46053 5.39681 7.28317 5.85007 7.20972 6.35772C6.01304 6.51326 5.1986 6.80838 4.22977 7.78281C2.92801 9.09211 2.85724 10.0332 2.71572 11.9154C2.67706 12.4296 2.6543 12.9713 2.6543 13.5343C2.6543 14.0974 2.67706 14.6391 2.71572 15.1533ZM16.3254 8.14306L17.8471 8.3417C18.3451 8.40672 18.6295 8.48488 18.8507 8.58534C19.06 8.6804 19.311 8.84042 19.6615 9.19301C20.1341 9.66835 20.2791 9.96263 20.3629 10.231C20.4788 10.6025 20.5236 11.0579 20.5994 12.0671C20.6345 12.5347 20.655 13.0257 20.655 13.5343C20.655 14.043 20.6345 14.5341 20.5994 15.0017C20.5236 16.0109 20.4788 16.4662 20.3629 16.8377C20.2791 17.106 20.1341 17.4003 19.6615 17.8756C19.2092 18.3306 18.9061 18.4845 18.5912 18.5802C18.166 18.7096 17.637 18.762 16.5462 18.8504C15.447 18.9394 14.1492 19.0002 12.6547 19.0002C11.1596 19.0002 9.8614 18.9393 8.76203 18.8503C7.67175 18.7619 7.14312 18.7095 6.71812 18.5802C6.40347 18.4845 6.10039 18.3307 5.64806 17.8757C5.17546 17.4004 5.03044 17.1062 4.9467 16.8381C4.83077 16.4669 4.78594 16.012 4.71009 15.0033C4.67489 14.5352 4.6543 14.0436 4.6543 13.5343C4.6543 13.0251 4.67489 12.5335 4.71009 12.0654C4.78593 11.0567 4.83075 10.6018 4.94669 10.2306C5.03044 9.96247 5.17545 9.66828 5.64806 9.19293C5.99923 8.83973 6.25055 8.67973 6.46011 8.58473C6.68184 8.48421 6.96713 8.40607 7.4675 8.34104L8.97188 8.14551L9.18911 6.64411C9.20906 6.50622 9.23997 6.34626 9.51458 5.95441C9.51879 5.94913 9.53152 5.93317 9.55455 5.90599C9.59214 5.8616 9.64068 5.80665 9.6938 5.74886C9.74692 5.69107 9.79759 5.63809 9.83866 5.59689C9.86437 5.57111 9.87893 5.55737 9.88352 5.55304C10.1888 5.29858 10.3495 5.23518 10.4806 5.19721C10.6986 5.13412 10.9712 5.10321 11.6789 5.04352C12.0086 5.01571 12.3368 5 12.6557 5C12.9554 5 13.2619 5.01387 13.569 5.03859C14.3558 5.10193 14.6541 5.13594 14.8879 5.20876C15.0232 5.25091 15.1984 5.32381 15.5323 5.64315L15.5522 5.6637C15.5715 5.6839 15.5958 5.70976 15.6215 5.73767C15.6473 5.76558 15.6711 5.79187 15.6897 5.81276L15.7086 5.83425C15.9128 6.08523 16.0017 6.24042 16.045 6.33406C16.0826 6.41546 16.1064 6.49388 16.1234 6.62182L16.3254 8.14306Z" fill="white"/>
</svg>
