<svg width="25" height="26" viewBox="0 0 25 26" fill="none" xmlns="http://www.w3.org/2000/svg">
<path fill-rule="evenodd" clip-rule="evenodd" d="M0.116365 8.70377C0.262138 6.92114 0.335024 6.02983 1.05943 4.71594C1.5484 3.82908 2.92282 2.45465 3.80969 1.96568C5.12358 1.24127 6.01489 1.16839 7.79751 1.02262C8.67509 0.950852 9.58754 0.90625 10.5 0.90625C11.4125 0.90625 12.3249 0.950852 13.2025 1.02261C14.9851 1.16839 15.8764 1.24127 17.1903 1.96568C18.0772 2.45465 19.4516 3.82908 19.9406 4.71594C20.665 6.02983 20.7379 6.92114 20.8836 8.70377C20.9554 9.58134 21 10.4938 21 11.4062C21 12.3187 20.9554 13.2312 20.8836 14.1087C20.7379 15.8914 20.665 16.7827 19.9406 18.0966C19.8415 18.2762 19.7061 18.4759 19.5458 18.6841L24.6364 23.7712C24.8817 24.0164 25.0037 24.3382 25.0025 24.6596C25.0014 24.978 24.8793 25.296 24.6364 25.539C24.3958 25.7796 24.0816 25.9016 23.7662 25.905C23.4418 25.9085 23.1162 25.7865 22.8687 25.539L17.7781 20.4519C17.5697 20.6123 17.37 20.7477 17.1903 20.8468C15.8764 21.5712 14.9851 21.6441 13.2025 21.7899C12.3249 21.8616 11.4125 21.9062 10.5 21.9062C9.58754 21.9062 8.67509 21.8616 7.79752 21.7899C6.01489 21.6441 5.12358 21.5712 3.80969 20.8468C2.92283 20.3579 1.5484 18.9834 1.05943 18.0966C0.335024 16.7827 0.262138 15.8914 0.116365 14.1087C0.0446023 13.2312 0 12.3187 0 11.4062C0 10.4938 0.0446023 9.58134 0.116365 8.70377ZM8.00127 3.5143C8.82394 3.44703 9.66734 3.40625 10.5 3.40625C11.3327 3.40625 12.1761 3.44703 12.9987 3.5143C14.7866 3.6605 15.1862 3.71551 15.9833 4.15497C16.1284 4.23502 16.5011 4.51361 16.9469 4.95937C17.3926 5.40513 17.6712 5.77781 17.7513 5.923C18.1907 6.72007 18.2458 7.11964 18.392 8.90752C18.4592 9.73019 18.5 10.5736 18.5 11.4062C18.5 12.2389 18.4592 13.0823 18.392 13.905C18.2458 15.6929 18.1907 16.0924 17.7513 16.8895C17.6712 17.0347 17.3926 17.4074 16.9469 17.8531C16.5011 18.2989 16.1284 18.5775 15.9833 18.6575C15.1862 19.097 14.7866 19.152 12.9987 19.2982C12.1761 19.3655 11.3327 19.4062 10.5 19.4062C9.66734 19.4062 8.82394 19.3655 8.00127 19.2982C6.21339 19.152 5.81382 19.097 5.01675 18.6575C4.87156 18.5775 4.49888 18.2989 4.05312 17.8531C3.60736 17.4074 3.32877 17.0347 3.24872 16.8895C2.80926 16.0924 2.75425 15.6929 2.60805 13.905C2.54078 13.0823 2.5 12.2389 2.5 11.4062C2.5 10.5736 2.54078 9.73019 2.60805 8.90752C2.75425 7.11964 2.80926 6.72007 3.24872 5.923C3.32877 5.77781 3.60736 5.40513 4.05312 4.95937C4.49888 4.51361 4.87156 4.23502 5.01675 4.15497C5.81382 3.71551 6.21339 3.6605 8.00127 3.5143Z" fill="#03012C"/>
</svg>
